<svg width="200" height="200" viewBox="0 0 200 200" fill="none" xmlns="http://www.w3.org/2000/svg">
<circle cx="100" cy="100" r="100" fill="black"/>
<path d="M80 80L40 80L40 40L80 40L80 80Z" fill="white"/>
<path d="M80 160H40L40 120H80L80 160Z" fill="white"/>
<path d="M120 120H80L80 80H120V120Z" fill="white"/>
<path d="M80 120H40L40 80L80 80L80 120Z" fill="white"/>
<path d="M120 80C125.253 80 130.454 78.9654 135.307 76.9552C140.16 74.945 144.57 71.9986 148.284 68.2843C151.999 64.5699 154.945 60.1604 156.955 55.3073C158.965 50.4543 160 45.2529 160 40H120V80Z" fill="white"/>
<path d="M160 160C160 154.747 158.965 149.546 156.955 144.693C154.945 139.84 151.999 135.43 148.284 131.716C144.57 128.001 140.16 125.055 135.307 123.045C130.454 121.035 125.253 120 120 120V160H160Z" fill="white"/>
</svg>
